<mxfile host="Electron" modified="2024-01-27T15:19:38.110Z" agent="Mozilla/5.0 (Windows NT 10.0; Win64; x64) AppleWebKit/537.36 (KHTML, like Gecko) draw.io/21.2.1 Chrome/112.0.5615.87 Electron/24.1.2 Safari/537.36" etag="XDiBa1ALFlBuingRjwq1" version="21.2.1" type="device">
  <diagram name="Page-1" id="YiAgsld9QGqMZYUkDXwH">
    <mxGraphModel dx="651" dy="766" grid="1" gridSize="10" guides="1" tooltips="1" connect="1" arrows="1" fold="1" page="1" pageScale="1" pageWidth="1169" pageHeight="827" math="0" shadow="0">
      <root>
        <mxCell id="0" />
        <mxCell id="1" parent="0" />
        <mxCell id="jLCaMTqW1mNZJMUQEA44-1" value="Customer" style="swimlane;childLayout=stackLayout;horizontal=1;startSize=50;horizontalStack=0;rounded=1;fontSize=14;fontStyle=0;strokeWidth=2;resizeParent=0;resizeLast=1;shadow=0;dashed=0;align=center;arcSize=4;whiteSpace=wrap;html=1;" vertex="1" parent="1">
          <mxGeometry x="281" y="229" width="160" height="120" as="geometry" />
        </mxCell>
        <mxCell id="jLCaMTqW1mNZJMUQEA44-2" value="+cust_id int&lt;br&gt;+cust_name varchar2(35)&lt;br&gt;+cust_address varchar2(60)&lt;br&gt;+cust_cars int" style="align=left;strokeColor=none;fillColor=none;spacingLeft=4;fontSize=12;verticalAlign=top;resizable=0;rotatable=0;part=1;html=1;" vertex="1" parent="jLCaMTqW1mNZJMUQEA44-1">
          <mxGeometry y="50" width="160" height="70" as="geometry" />
        </mxCell>
        <mxCell id="jLCaMTqW1mNZJMUQEA44-3" value="Car" style="swimlane;childLayout=stackLayout;horizontal=1;startSize=50;horizontalStack=0;rounded=1;fontSize=14;fontStyle=0;strokeWidth=2;resizeParent=0;resizeLast=1;shadow=0;dashed=0;align=center;arcSize=4;whiteSpace=wrap;html=1;" vertex="1" parent="1">
          <mxGeometry x="511" y="219" width="160" height="130" as="geometry" />
        </mxCell>
        <mxCell id="jLCaMTqW1mNZJMUQEA44-4" value="+car_id int&lt;br&gt;+car_model varchar2(20)&lt;br&gt;+make date&lt;br&gt;+policy int&lt;br&gt;+accident int" style="align=left;strokeColor=none;fillColor=none;spacingLeft=4;fontSize=12;verticalAlign=top;resizable=0;rotatable=0;part=1;html=1;" vertex="1" parent="jLCaMTqW1mNZJMUQEA44-3">
          <mxGeometry y="50" width="160" height="80" as="geometry" />
        </mxCell>
        <mxCell id="jLCaMTqW1mNZJMUQEA44-5" value="Accident" style="swimlane;childLayout=stackLayout;horizontal=1;startSize=50;horizontalStack=0;rounded=1;fontSize=14;fontStyle=0;strokeWidth=2;resizeParent=0;resizeLast=1;shadow=0;dashed=0;align=center;arcSize=4;whiteSpace=wrap;html=1;" vertex="1" parent="1">
          <mxGeometry x="421" y="409" width="160" height="120" as="geometry" />
        </mxCell>
        <mxCell id="jLCaMTqW1mNZJMUQEA44-6" value="+acc_id int&lt;br&gt;+acc_date date&lt;br&gt;+location varchar2(30)" style="align=left;strokeColor=none;fillColor=none;spacingLeft=4;fontSize=12;verticalAlign=top;resizable=0;rotatable=0;part=1;html=1;" vertex="1" parent="jLCaMTqW1mNZJMUQEA44-5">
          <mxGeometry y="50" width="160" height="70" as="geometry" />
        </mxCell>
        <mxCell id="jLCaMTqW1mNZJMUQEA44-7" value="Insurance" style="swimlane;childLayout=stackLayout;horizontal=1;startSize=50;horizontalStack=0;rounded=1;fontSize=14;fontStyle=0;strokeWidth=2;resizeParent=0;resizeLast=1;shadow=0;dashed=0;align=center;arcSize=4;whiteSpace=wrap;html=1;" vertex="1" parent="1">
          <mxGeometry x="701" y="419" width="160" height="120" as="geometry" />
        </mxCell>
        <mxCell id="jLCaMTqW1mNZJMUQEA44-8" value="+policy_id int&lt;br&gt;+premium int&lt;br&gt;+coverage int" style="align=left;strokeColor=none;fillColor=none;spacingLeft=4;fontSize=12;verticalAlign=top;resizable=0;rotatable=0;part=1;html=1;" vertex="1" parent="jLCaMTqW1mNZJMUQEA44-7">
          <mxGeometry y="50" width="160" height="70" as="geometry" />
        </mxCell>
        <mxCell id="jLCaMTqW1mNZJMUQEA44-10" value="" style="edgeStyle=entityRelationEdgeStyle;fontSize=12;html=1;endArrow=ERzeroToMany;endFill=1;rounded=0;exitX=1.001;exitY=0.905;exitDx=0;exitDy=0;exitPerimeter=0;entryX=1.016;entryY=0.166;entryDx=0;entryDy=0;entryPerimeter=0;" edge="1" parent="1" source="jLCaMTqW1mNZJMUQEA44-4" target="jLCaMTqW1mNZJMUQEA44-6">
          <mxGeometry width="100" height="100" relative="1" as="geometry">
            <mxPoint x="681" y="349" as="sourcePoint" />
            <mxPoint x="701" y="369" as="targetPoint" />
          </mxGeometry>
        </mxCell>
        <mxCell id="jLCaMTqW1mNZJMUQEA44-12" value="" style="edgeStyle=entityRelationEdgeStyle;fontSize=12;html=1;endArrow=ERmandOne;startArrow=ERmandOne;rounded=0;entryX=0;entryY=0.25;entryDx=0;entryDy=0;exitX=1;exitY=0.75;exitDx=0;exitDy=0;" edge="1" parent="1" source="jLCaMTqW1mNZJMUQEA44-4" target="jLCaMTqW1mNZJMUQEA44-8">
          <mxGeometry width="100" height="100" relative="1" as="geometry">
            <mxPoint x="671" y="339" as="sourcePoint" />
            <mxPoint x="751" y="279" as="targetPoint" />
          </mxGeometry>
        </mxCell>
        <mxCell id="jLCaMTqW1mNZJMUQEA44-14" value="" style="edgeStyle=entityRelationEdgeStyle;fontSize=12;html=1;endArrow=ERoneToMany;rounded=0;entryX=-0.019;entryY=0.165;entryDx=0;entryDy=0;entryPerimeter=0;exitX=1.008;exitY=0.871;exitDx=0;exitDy=0;exitPerimeter=0;" edge="1" parent="1" source="jLCaMTqW1mNZJMUQEA44-2" target="jLCaMTqW1mNZJMUQEA44-4">
          <mxGeometry width="100" height="100" relative="1" as="geometry">
            <mxPoint x="441" y="329" as="sourcePoint" />
            <mxPoint x="541" y="229" as="targetPoint" />
          </mxGeometry>
        </mxCell>
      </root>
    </mxGraphModel>
  </diagram>
</mxfile>
